# xmcd CD database file
#
# Track frame offsets:
#	150
#	11998
#	25342
#	38209
#	51172
#	66798
#	77808
#	87858
#	102877
#	114019
#	127905
#	139572
#	152508
#	165061
#
# Disc length: 2384 seconds
#
# Revision: 2
# Processed by: cddbd v1.5.2PL0 Copyright (c) Steve Scherf et al.
# Submitted via: CDex 1.79
#
DISCID=9e094e0e
DTITLE=Erin Hay - The Circle
DYEAR=2001
DGENRE=Country
TTITLE0=False Eyelashes
TTITLE1=High On A Hilltop (featuring Jack Greene)
TTITLE2=BJ The DJ
TTITLE3=Tomorrow Is Forever
TTITLE4=The Circle
TTITLE5=His and Hers (featuring Perley Curtis)
TTITLE6=If Teardrops Were Pennies
TTITLE7=I Hope You Turn Me Down
TTITLE8=Walk On By
TTITLE9=A Fire I Can't Put Out
TTITLE10=My Shoes Keep Walking Back To You
TTITLE11=Sometimes I Go As Far
TTITLE12=Gotta Travel On (featuring Ernie Ashworth)
TTITLE13=Tennessee Moon
EXTD=YEAR: 2001
EXTT0=
EXTT1=
EXTT2=
EXTT3=
EXTT4=
EXTT5=
EXTT6=
EXTT7=
EXTT8=
EXTT9=
EXTT10=
EXTT11=
EXTT12=
EXTT13=
PLAYORDER=
